<mxfile host="app.diagrams.net" agent="Mozilla/5.0 (Windows NT 10.0; Win64; x64) AppleWebKit/537.36 (KHTML, like Gecko) Chrome/134.0.0.0 Safari/537.36" version="26.1.1">
  <diagram id="C5RBs43oDa-KdzZeNtuy" name="Page-1">
    <mxGraphModel dx="5987" dy="2228" grid="1" gridSize="10" guides="1" tooltips="1" connect="1" arrows="1" fold="1" page="1" pageScale="1" pageWidth="827" pageHeight="1169" math="0" shadow="0">
      <root>
        <mxCell id="WIyWlLk6GJQsqaUBKTNV-0" />
        <mxCell id="WIyWlLk6GJQsqaUBKTNV-1" parent="WIyWlLk6GJQsqaUBKTNV-0" />
        <mxCell id="lu5UdBAbkzEqNOQLVhs5-148" value="" style="rounded=0;whiteSpace=wrap;html=1;fillColor=#CCFFFF;" parent="WIyWlLk6GJQsqaUBKTNV-1" vertex="1">
          <mxGeometry x="-93" y="40" width="460" height="1610" as="geometry" />
        </mxCell>
        <mxCell id="LKQV-oSHh0Kc1NYlFT-x-73" value="" style="rounded=0;whiteSpace=wrap;html=1;fillColor=#D5E8D4;" parent="WIyWlLk6GJQsqaUBKTNV-1" vertex="1">
          <mxGeometry x="-77" y="106" width="430" height="1300" as="geometry" />
        </mxCell>
        <mxCell id="LKQV-oSHh0Kc1NYlFT-x-71" value="" style="rounded=0;whiteSpace=wrap;html=1;fillColor=#F8CECC;" parent="WIyWlLk6GJQsqaUBKTNV-1" vertex="1">
          <mxGeometry x="23" y="256" width="242" height="160" as="geometry" />
        </mxCell>
        <mxCell id="LKQV-oSHh0Kc1NYlFT-x-69" value="" style="rounded=0;whiteSpace=wrap;html=1;fillColor=#F8CECC;" parent="WIyWlLk6GJQsqaUBKTNV-1" vertex="1">
          <mxGeometry x="20" y="1236" width="260" height="160" as="geometry" />
        </mxCell>
        <mxCell id="LKQV-oSHh0Kc1NYlFT-x-0" value="for each annulus" style="text;html=1;align=center;verticalAlign=middle;whiteSpace=wrap;rounded=0;" parent="WIyWlLk6GJQsqaUBKTNV-1" vertex="1">
          <mxGeometry x="120" y="76" width="100" height="30" as="geometry" />
        </mxCell>
        <mxCell id="LKQV-oSHh0Kc1NYlFT-x-2" style="edgeStyle=orthogonalEdgeStyle;rounded=0;orthogonalLoop=1;jettySize=auto;html=1;exitX=0.5;exitY=1;exitDx=0;exitDy=0;" parent="WIyWlLk6GJQsqaUBKTNV-1" source="LKQV-oSHh0Kc1NYlFT-x-1" edge="1">
          <mxGeometry relative="1" as="geometry">
            <mxPoint x="120" y="198" as="targetPoint" />
          </mxGeometry>
        </mxCell>
        <mxCell id="LKQV-oSHh0Kc1NYlFT-x-1" value="initialize a, a&#39;" style="shape=parallelogram;perimeter=parallelogramPerimeter;whiteSpace=wrap;html=1;fixedSize=1;fillColor=#FFCE9F;" parent="WIyWlLk6GJQsqaUBKTNV-1" vertex="1">
          <mxGeometry x="60" y="118" width="120" height="40" as="geometry" />
        </mxCell>
        <mxCell id="LKQV-oSHh0Kc1NYlFT-x-3" value="" style="endArrow=classic;html=1;rounded=0;entryX=0.5;entryY=0;entryDx=0;entryDy=0;" parent="WIyWlLk6GJQsqaUBKTNV-1" target="LKQV-oSHh0Kc1NYlFT-x-1" edge="1">
          <mxGeometry width="50" height="50" relative="1" as="geometry">
            <mxPoint x="120" y="78" as="sourcePoint" />
            <mxPoint x="145" y="48" as="targetPoint" />
          </mxGeometry>
        </mxCell>
        <mxCell id="LKQV-oSHh0Kc1NYlFT-x-77" style="edgeStyle=orthogonalEdgeStyle;rounded=0;orthogonalLoop=1;jettySize=auto;html=1;exitX=0.5;exitY=1;exitDx=0;exitDy=0;entryX=0.5;entryY=0;entryDx=0;entryDy=0;" parent="WIyWlLk6GJQsqaUBKTNV-1" source="LKQV-oSHh0Kc1NYlFT-x-4" target="LKQV-oSHh0Kc1NYlFT-x-76" edge="1">
          <mxGeometry relative="1" as="geometry" />
        </mxCell>
        <mxCell id="LKQV-oSHh0Kc1NYlFT-x-4" value="Compute velocities" style="rounded=0;whiteSpace=wrap;html=1;fillColor=#FFF2CC;" parent="WIyWlLk6GJQsqaUBKTNV-1" vertex="1">
          <mxGeometry x="60" y="198" width="120" height="40" as="geometry" />
        </mxCell>
        <mxCell id="LKQV-oSHh0Kc1NYlFT-x-8" value="Compute Cl, Cd, L, D&amp;nbsp; f_norm, f_tan,&amp;nbsp;Î“ from polar data" style="rounded=0;whiteSpace=wrap;html=1;fillColor=#FFF2CC;" parent="WIyWlLk6GJQsqaUBKTNV-1" vertex="1">
          <mxGeometry x="35" y="358" width="170" height="40" as="geometry" />
        </mxCell>
        <mxCell id="LKQV-oSHh0Kc1NYlFT-x-13" style="edgeStyle=orthogonalEdgeStyle;rounded=0;orthogonalLoop=1;jettySize=auto;html=1;exitX=0.5;exitY=1;exitDx=0;exitDy=0;entryX=0.5;entryY=0;entryDx=0;entryDy=0;" parent="WIyWlLk6GJQsqaUBKTNV-1" source="LKQV-oSHh0Kc1NYlFT-x-9" target="LKQV-oSHh0Kc1NYlFT-x-12" edge="1">
          <mxGeometry relative="1" as="geometry" />
        </mxCell>
        <mxCell id="LKQV-oSHh0Kc1NYlFT-x-9" value="compute C_T from f_norm" style="rounded=0;whiteSpace=wrap;html=1;fillColor=#FFF2CC;" parent="WIyWlLk6GJQsqaUBKTNV-1" vertex="1">
          <mxGeometry x="60" y="438" width="120" height="40" as="geometry" />
        </mxCell>
        <mxCell id="LKQV-oSHh0Kc1NYlFT-x-10" value="" style="endArrow=classic;html=1;rounded=0;exitX=0.5;exitY=1;exitDx=0;exitDy=0;entryX=0.5;entryY=0;entryDx=0;entryDy=0;" parent="WIyWlLk6GJQsqaUBKTNV-1" source="LKQV-oSHh0Kc1NYlFT-x-8" target="LKQV-oSHh0Kc1NYlFT-x-9" edge="1">
          <mxGeometry width="50" height="50" relative="1" as="geometry">
            <mxPoint x="40" y="458" as="sourcePoint" />
            <mxPoint x="90" y="408" as="targetPoint" />
          </mxGeometry>
        </mxCell>
        <mxCell id="LKQV-oSHh0Kc1NYlFT-x-15" style="edgeStyle=orthogonalEdgeStyle;rounded=0;orthogonalLoop=1;jettySize=auto;html=1;exitX=0.5;exitY=1;exitDx=0;exitDy=0;entryX=0.5;entryY=0;entryDx=0;entryDy=0;" parent="WIyWlLk6GJQsqaUBKTNV-1" source="LKQV-oSHh0Kc1NYlFT-x-12" target="LKQV-oSHh0Kc1NYlFT-x-14" edge="1">
          <mxGeometry relative="1" as="geometry" />
        </mxCell>
        <mxCell id="LKQV-oSHh0Kc1NYlFT-x-12" value="compute a_new with Glauert correction&lt;br&gt;compute a_line from f_tan" style="rounded=0;whiteSpace=wrap;html=1;fillColor=#FFF2CC;" parent="WIyWlLk6GJQsqaUBKTNV-1" vertex="1">
          <mxGeometry x="10" y="518" width="220" height="40" as="geometry" />
        </mxCell>
        <mxCell id="LKQV-oSHh0Kc1NYlFT-x-24" style="edgeStyle=orthogonalEdgeStyle;rounded=0;orthogonalLoop=1;jettySize=auto;html=1;exitX=1;exitY=0.5;exitDx=0;exitDy=0;entryX=0.5;entryY=0;entryDx=0;entryDy=0;" parent="WIyWlLk6GJQsqaUBKTNV-1" source="LKQV-oSHh0Kc1NYlFT-x-14" target="LKQV-oSHh0Kc1NYlFT-x-23" edge="1">
          <mxGeometry relative="1" as="geometry" />
        </mxCell>
        <mxCell id="LKQV-oSHh0Kc1NYlFT-x-27" style="edgeStyle=orthogonalEdgeStyle;rounded=0;orthogonalLoop=1;jettySize=auto;html=1;exitX=0.5;exitY=1;exitDx=0;exitDy=0;entryX=0.5;entryY=0;entryDx=0;entryDy=0;" parent="WIyWlLk6GJQsqaUBKTNV-1" source="LKQV-oSHh0Kc1NYlFT-x-14" target="LKQV-oSHh0Kc1NYlFT-x-26" edge="1">
          <mxGeometry relative="1" as="geometry" />
        </mxCell>
        <mxCell id="LKQV-oSHh0Kc1NYlFT-x-14" value="Prandtl correction to be applied" style="rhombus;whiteSpace=wrap;html=1;fillColor=#E1D5E7;" parent="WIyWlLk6GJQsqaUBKTNV-1" vertex="1">
          <mxGeometry x="20" y="598" width="200" height="50" as="geometry" />
        </mxCell>
        <mxCell id="LKQV-oSHh0Kc1NYlFT-x-32" style="edgeStyle=orthogonalEdgeStyle;rounded=0;orthogonalLoop=1;jettySize=auto;html=1;exitX=0.5;exitY=1;exitDx=0;exitDy=0;entryX=1;entryY=0.5;entryDx=0;entryDy=0;" parent="WIyWlLk6GJQsqaUBKTNV-1" source="LKQV-oSHh0Kc1NYlFT-x-23" target="LKQV-oSHh0Kc1NYlFT-x-30" edge="1">
          <mxGeometry relative="1" as="geometry" />
        </mxCell>
        <mxCell id="LKQV-oSHh0Kc1NYlFT-x-23" value="compute Prandtl correction factor" style="rounded=0;whiteSpace=wrap;html=1;fillColor=#FFF2CC;" parent="WIyWlLk6GJQsqaUBKTNV-1" vertex="1">
          <mxGeometry x="205" y="678" width="120" height="40" as="geometry" />
        </mxCell>
        <mxCell id="LKQV-oSHh0Kc1NYlFT-x-31" style="edgeStyle=orthogonalEdgeStyle;rounded=0;orthogonalLoop=1;jettySize=auto;html=1;exitX=0.5;exitY=1;exitDx=0;exitDy=0;entryX=0.5;entryY=0;entryDx=0;entryDy=0;" parent="WIyWlLk6GJQsqaUBKTNV-1" source="LKQV-oSHh0Kc1NYlFT-x-26" target="LKQV-oSHh0Kc1NYlFT-x-30" edge="1">
          <mxGeometry relative="1" as="geometry" />
        </mxCell>
        <mxCell id="LKQV-oSHh0Kc1NYlFT-x-26" value="set Prandl correction factor to 1.0" style="rounded=0;whiteSpace=wrap;html=1;fillColor=#FFF2CC;" parent="WIyWlLk6GJQsqaUBKTNV-1" vertex="1">
          <mxGeometry x="60" y="688" width="120" height="40" as="geometry" />
        </mxCell>
        <mxCell id="LKQV-oSHh0Kc1NYlFT-x-28" value="Yes" style="text;html=1;align=center;verticalAlign=middle;whiteSpace=wrap;rounded=0;" parent="WIyWlLk6GJQsqaUBKTNV-1" vertex="1">
          <mxGeometry x="214" y="598" width="60" height="30" as="geometry" />
        </mxCell>
        <mxCell id="LKQV-oSHh0Kc1NYlFT-x-29" value="No" style="text;html=1;align=center;verticalAlign=middle;whiteSpace=wrap;rounded=0;" parent="WIyWlLk6GJQsqaUBKTNV-1" vertex="1">
          <mxGeometry x="100" y="648" width="60" height="30" as="geometry" />
        </mxCell>
        <mxCell id="LKQV-oSHh0Kc1NYlFT-x-34" style="edgeStyle=orthogonalEdgeStyle;rounded=0;orthogonalLoop=1;jettySize=auto;html=1;exitX=0.5;exitY=1;exitDx=0;exitDy=0;entryX=0.5;entryY=0;entryDx=0;entryDy=0;" parent="WIyWlLk6GJQsqaUBKTNV-1" source="LKQV-oSHh0Kc1NYlFT-x-30" target="LKQV-oSHh0Kc1NYlFT-x-33" edge="1">
          <mxGeometry relative="1" as="geometry" />
        </mxCell>
        <mxCell id="LKQV-oSHh0Kc1NYlFT-x-30" value="Compute a_corrected, a_line_corrected" style="rounded=0;whiteSpace=wrap;html=1;fillColor=#FFF2CC;" parent="WIyWlLk6GJQsqaUBKTNV-1" vertex="1">
          <mxGeometry x="55" y="768" width="130" height="40" as="geometry" />
        </mxCell>
        <mxCell id="LKQV-oSHh0Kc1NYlFT-x-37" style="edgeStyle=orthogonalEdgeStyle;rounded=0;orthogonalLoop=1;jettySize=auto;html=1;exitX=0.5;exitY=1;exitDx=0;exitDy=0;entryX=0.5;entryY=0;entryDx=0;entryDy=0;" parent="WIyWlLk6GJQsqaUBKTNV-1" source="LKQV-oSHh0Kc1NYlFT-x-33" target="LKQV-oSHh0Kc1NYlFT-x-36" edge="1">
          <mxGeometry relative="1" as="geometry" />
        </mxCell>
        <mxCell id="LKQV-oSHh0Kc1NYlFT-x-33" value="compute a_next_it, a_line_next_it with relaxation factor" style="rounded=0;whiteSpace=wrap;html=1;fillColor=#FFF2CC;" parent="WIyWlLk6GJQsqaUBKTNV-1" vertex="1">
          <mxGeometry x="12.5" y="848" width="215" height="40" as="geometry" />
        </mxCell>
        <mxCell id="LKQV-oSHh0Kc1NYlFT-x-38" style="edgeStyle=orthogonalEdgeStyle;rounded=0;orthogonalLoop=1;jettySize=auto;html=1;exitX=0;exitY=0.5;exitDx=0;exitDy=0;entryX=0;entryY=0.5;entryDx=0;entryDy=0;" parent="WIyWlLk6GJQsqaUBKTNV-1" source="LKQV-oSHh0Kc1NYlFT-x-36" target="LKQV-oSHh0Kc1NYlFT-x-4" edge="1">
          <mxGeometry relative="1" as="geometry">
            <Array as="points">
              <mxPoint x="-7" y="953" />
              <mxPoint x="-7" y="218" />
            </Array>
          </mxGeometry>
        </mxCell>
        <mxCell id="LKQV-oSHh0Kc1NYlFT-x-41" style="edgeStyle=orthogonalEdgeStyle;rounded=0;orthogonalLoop=1;jettySize=auto;html=1;exitX=0.5;exitY=1;exitDx=0;exitDy=0;entryX=0.5;entryY=0;entryDx=0;entryDy=0;" parent="WIyWlLk6GJQsqaUBKTNV-1" source="LKQV-oSHh0Kc1NYlFT-x-36" target="LKQV-oSHh0Kc1NYlFT-x-40" edge="1">
          <mxGeometry relative="1" as="geometry" />
        </mxCell>
        <mxCell id="LKQV-oSHh0Kc1NYlFT-x-36" value="converged or max &lt;br&gt;iteration reached" style="rhombus;whiteSpace=wrap;html=1;fillColor=#E1D5E7;" parent="WIyWlLk6GJQsqaUBKTNV-1" vertex="1">
          <mxGeometry x="20" y="928" width="200" height="50" as="geometry" />
        </mxCell>
        <mxCell id="LKQV-oSHh0Kc1NYlFT-x-39" value="No" style="text;html=1;align=center;verticalAlign=middle;whiteSpace=wrap;rounded=0;" parent="WIyWlLk6GJQsqaUBKTNV-1" vertex="1">
          <mxGeometry x="-30" y="188" width="60" height="30" as="geometry" />
        </mxCell>
        <mxCell id="LKQV-oSHh0Kc1NYlFT-x-44" style="edgeStyle=orthogonalEdgeStyle;rounded=0;orthogonalLoop=1;jettySize=auto;html=1;exitX=0.5;exitY=1;exitDx=0;exitDy=0;entryX=0.5;entryY=0;entryDx=0;entryDy=0;" parent="WIyWlLk6GJQsqaUBKTNV-1" source="LKQV-oSHh0Kc1NYlFT-x-40" target="LKQV-oSHh0Kc1NYlFT-x-43" edge="1">
          <mxGeometry relative="1" as="geometry" />
        </mxCell>
        <mxCell id="LKQV-oSHh0Kc1NYlFT-x-57" style="edgeStyle=orthogonalEdgeStyle;rounded=0;orthogonalLoop=1;jettySize=auto;html=1;exitX=0;exitY=0.5;exitDx=0;exitDy=0;entryX=0;entryY=0.5;entryDx=0;entryDy=0;" parent="WIyWlLk6GJQsqaUBKTNV-1" source="LKQV-oSHh0Kc1NYlFT-x-40" target="LKQV-oSHh0Kc1NYlFT-x-55" edge="1">
          <mxGeometry relative="1" as="geometry">
            <Array as="points">
              <mxPoint x="-40" y="1043" />
              <mxPoint x="-40" y="1436" />
            </Array>
          </mxGeometry>
        </mxCell>
        <mxCell id="LKQV-oSHh0Kc1NYlFT-x-40" value="yaw angle is not zero" style="rhombus;whiteSpace=wrap;html=1;fillColor=#E1D5E7;" parent="WIyWlLk6GJQsqaUBKTNV-1" vertex="1">
          <mxGeometry x="20" y="1018" width="200" height="50" as="geometry" />
        </mxCell>
        <mxCell id="LKQV-oSHh0Kc1NYlFT-x-42" value="Start" style="ellipse;whiteSpace=wrap;html=1;fillColor=#D4E1F5;" parent="WIyWlLk6GJQsqaUBKTNV-1" vertex="1">
          <mxGeometry x="70" y="46" width="100" height="32" as="geometry" />
        </mxCell>
        <mxCell id="LKQV-oSHh0Kc1NYlFT-x-47" style="edgeStyle=orthogonalEdgeStyle;rounded=0;orthogonalLoop=1;jettySize=auto;html=1;exitX=0.5;exitY=1;exitDx=0;exitDy=0;entryX=0.5;entryY=0;entryDx=0;entryDy=0;" parent="WIyWlLk6GJQsqaUBKTNV-1" source="LKQV-oSHh0Kc1NYlFT-x-43" target="LKQV-oSHh0Kc1NYlFT-x-45" edge="1">
          <mxGeometry relative="1" as="geometry" />
        </mxCell>
        <mxCell id="LKQV-oSHh0Kc1NYlFT-x-43" value="modify a_new with Glauert theory for yawed conditions and a_line_corrected with tangential velocity contribution&amp;nbsp;" style="rounded=0;whiteSpace=wrap;html=1;fillColor=#FFF2CC;" parent="WIyWlLk6GJQsqaUBKTNV-1" vertex="1">
          <mxGeometry x="-10" y="1096" width="260" height="40" as="geometry" />
        </mxCell>
        <mxCell id="LKQV-oSHh0Kc1NYlFT-x-51" style="edgeStyle=orthogonalEdgeStyle;rounded=0;orthogonalLoop=1;jettySize=auto;html=1;exitX=0.5;exitY=1;exitDx=0;exitDy=0;entryX=0.5;entryY=0;entryDx=0;entryDy=0;" parent="WIyWlLk6GJQsqaUBKTNV-1" source="LKQV-oSHh0Kc1NYlFT-x-45" target="LKQV-oSHh0Kc1NYlFT-x-50" edge="1">
          <mxGeometry relative="1" as="geometry" />
        </mxCell>
        <mxCell id="LKQV-oSHh0Kc1NYlFT-x-45" value="recompute velocities" style="rounded=0;whiteSpace=wrap;html=1;fillColor=#FFF2CC;" parent="WIyWlLk6GJQsqaUBKTNV-1" vertex="1">
          <mxGeometry x="60" y="1176" width="120" height="40" as="geometry" />
        </mxCell>
        <mxCell id="LKQV-oSHh0Kc1NYlFT-x-54" style="edgeStyle=orthogonalEdgeStyle;rounded=0;orthogonalLoop=1;jettySize=auto;html=1;exitX=0.5;exitY=1;exitDx=0;exitDy=0;entryX=0.5;entryY=0;entryDx=0;entryDy=0;" parent="WIyWlLk6GJQsqaUBKTNV-1" source="LKQV-oSHh0Kc1NYlFT-x-50" edge="1">
          <mxGeometry relative="1" as="geometry">
            <mxPoint x="120" y="1336" as="targetPoint" />
          </mxGeometry>
        </mxCell>
        <mxCell id="LKQV-oSHh0Kc1NYlFT-x-50" value="compute Ï†, Î±" style="rounded=0;whiteSpace=wrap;html=1;fillColor=#FFF2CC;" parent="WIyWlLk6GJQsqaUBKTNV-1" vertex="1">
          <mxGeometry x="60" y="1256" width="120" height="40" as="geometry" />
        </mxCell>
        <mxCell id="LKQV-oSHh0Kc1NYlFT-x-56" style="edgeStyle=orthogonalEdgeStyle;rounded=0;orthogonalLoop=1;jettySize=auto;html=1;exitX=0.5;exitY=1;exitDx=0;exitDy=0;entryX=0.5;entryY=0;entryDx=0;entryDy=0;" parent="WIyWlLk6GJQsqaUBKTNV-1" target="LKQV-oSHh0Kc1NYlFT-x-55" edge="1">
          <mxGeometry relative="1" as="geometry">
            <mxPoint x="120" y="1376" as="sourcePoint" />
          </mxGeometry>
        </mxCell>
        <mxCell id="LKQV-oSHh0Kc1NYlFT-x-64" style="edgeStyle=orthogonalEdgeStyle;rounded=0;orthogonalLoop=1;jettySize=auto;html=1;exitX=0.5;exitY=1;exitDx=0;exitDy=0;entryX=0.5;entryY=0;entryDx=0;entryDy=0;" parent="WIyWlLk6GJQsqaUBKTNV-1" source="LKQV-oSHh0Kc1NYlFT-x-55" target="LKQV-oSHh0Kc1NYlFT-x-63" edge="1">
          <mxGeometry relative="1" as="geometry" />
        </mxCell>
        <mxCell id="LKQV-oSHh0Kc1NYlFT-x-55" value="Store results" style="rounded=0;whiteSpace=wrap;html=1;fillColor=#FFF2CC;" parent="WIyWlLk6GJQsqaUBKTNV-1" vertex="1">
          <mxGeometry x="60" y="1416" width="120" height="40" as="geometry" />
        </mxCell>
        <mxCell id="LKQV-oSHh0Kc1NYlFT-x-58" value="No" style="text;html=1;align=center;verticalAlign=middle;whiteSpace=wrap;rounded=0;" parent="WIyWlLk6GJQsqaUBKTNV-1" vertex="1">
          <mxGeometry x="-40" y="1006" width="60" height="30" as="geometry" />
        </mxCell>
        <mxCell id="LKQV-oSHh0Kc1NYlFT-x-59" value="Yes" style="text;html=1;align=center;verticalAlign=middle;whiteSpace=wrap;rounded=0;" parent="WIyWlLk6GJQsqaUBKTNV-1" vertex="1">
          <mxGeometry x="110" y="1066" width="60" height="30" as="geometry" />
        </mxCell>
        <mxCell id="LKQV-oSHh0Kc1NYlFT-x-60" value="No" style="text;html=1;align=center;verticalAlign=middle;whiteSpace=wrap;rounded=0;" parent="WIyWlLk6GJQsqaUBKTNV-1" vertex="1">
          <mxGeometry x="-25" y="948" width="60" height="30" as="geometry" />
        </mxCell>
        <mxCell id="LKQV-oSHh0Kc1NYlFT-x-61" value="Yes" style="text;html=1;align=center;verticalAlign=middle;whiteSpace=wrap;rounded=0;" parent="WIyWlLk6GJQsqaUBKTNV-1" vertex="1">
          <mxGeometry x="110" y="986" width="60" height="30" as="geometry" />
        </mxCell>
        <mxCell id="LKQV-oSHh0Kc1NYlFT-x-65" style="edgeStyle=orthogonalEdgeStyle;rounded=0;orthogonalLoop=1;jettySize=auto;html=1;exitX=0;exitY=0.5;exitDx=0;exitDy=0;entryX=0;entryY=0.5;entryDx=0;entryDy=0;" parent="WIyWlLk6GJQsqaUBKTNV-1" source="LKQV-oSHh0Kc1NYlFT-x-63" target="LKQV-oSHh0Kc1NYlFT-x-1" edge="1">
          <mxGeometry relative="1" as="geometry">
            <mxPoint x="-120" y="136" as="targetPoint" />
            <Array as="points">
              <mxPoint x="-67" y="1521" />
              <mxPoint x="-67" y="138" />
            </Array>
          </mxGeometry>
        </mxCell>
        <mxCell id="LKQV-oSHh0Kc1NYlFT-x-68" style="edgeStyle=orthogonalEdgeStyle;rounded=0;orthogonalLoop=1;jettySize=auto;html=1;exitX=0.5;exitY=1;exitDx=0;exitDy=0;entryX=0.5;entryY=0;entryDx=0;entryDy=0;" parent="WIyWlLk6GJQsqaUBKTNV-1" source="LKQV-oSHh0Kc1NYlFT-x-63" target="LKQV-oSHh0Kc1NYlFT-x-67" edge="1">
          <mxGeometry relative="1" as="geometry" />
        </mxCell>
        <mxCell id="LKQV-oSHh0Kc1NYlFT-x-63" value="All annuli computed" style="rhombus;whiteSpace=wrap;html=1;fillColor=#E1D5E7;" parent="WIyWlLk6GJQsqaUBKTNV-1" vertex="1">
          <mxGeometry x="20" y="1496" width="200" height="50" as="geometry" />
        </mxCell>
        <mxCell id="LKQV-oSHh0Kc1NYlFT-x-66" value="No" style="text;html=1;align=center;verticalAlign=middle;whiteSpace=wrap;rounded=0;" parent="WIyWlLk6GJQsqaUBKTNV-1" vertex="1">
          <mxGeometry x="-57" y="1516" width="60" height="30" as="geometry" />
        </mxCell>
        <mxCell id="LKQV-oSHh0Kc1NYlFT-x-67" value="End" style="ellipse;whiteSpace=wrap;html=1;fillColor=#D4E1F5;" parent="WIyWlLk6GJQsqaUBKTNV-1" vertex="1">
          <mxGeometry x="70" y="1576" width="100" height="32" as="geometry" />
        </mxCell>
        <mxCell id="LKQV-oSHh0Kc1NYlFT-x-72" value="&lt;span style=&quot;font-size: 14px;&quot;&gt;load_blade_element&lt;/span&gt;" style="text;html=1;align=center;verticalAlign=middle;whiteSpace=wrap;rounded=0;" parent="WIyWlLk6GJQsqaUBKTNV-1" vertex="1">
          <mxGeometry x="170" y="316" width="60" height="40" as="geometry" />
        </mxCell>
        <mxCell id="LKQV-oSHh0Kc1NYlFT-x-74" value="&lt;font style=&quot;font-size: 18px;&quot;&gt;Solve Streamtube&lt;/font&gt;" style="text;html=1;align=center;verticalAlign=middle;whiteSpace=wrap;rounded=0;" parent="WIyWlLk6GJQsqaUBKTNV-1" vertex="1">
          <mxGeometry x="230" y="146" width="100" height="1" as="geometry" />
        </mxCell>
        <mxCell id="LKQV-oSHh0Kc1NYlFT-x-75" value="Compute Cl, Cd, L, D&amp;nbsp; f_norm, f_tan,&amp;nbsp;Î“ from polar data" style="rounded=0;whiteSpace=wrap;html=1;fillColor=#FFF2CC;" parent="WIyWlLk6GJQsqaUBKTNV-1" vertex="1">
          <mxGeometry x="35" y="1336" width="170" height="40" as="geometry" />
        </mxCell>
        <mxCell id="LKQV-oSHh0Kc1NYlFT-x-78" style="edgeStyle=orthogonalEdgeStyle;rounded=0;orthogonalLoop=1;jettySize=auto;html=1;exitX=0.5;exitY=1;exitDx=0;exitDy=0;entryX=0.5;entryY=0;entryDx=0;entryDy=0;" parent="WIyWlLk6GJQsqaUBKTNV-1" source="LKQV-oSHh0Kc1NYlFT-x-76" target="LKQV-oSHh0Kc1NYlFT-x-8" edge="1">
          <mxGeometry relative="1" as="geometry" />
        </mxCell>
        <mxCell id="LKQV-oSHh0Kc1NYlFT-x-76" value="compute Ï†, Î±" style="rounded=0;whiteSpace=wrap;html=1;fillColor=#FFF2CC;" parent="WIyWlLk6GJQsqaUBKTNV-1" vertex="1">
          <mxGeometry x="60" y="276" width="120" height="40" as="geometry" />
        </mxCell>
        <mxCell id="LKQV-oSHh0Kc1NYlFT-x-79" value="&lt;span style=&quot;font-size: 14px;&quot;&gt;load_blade_element&lt;/span&gt;" style="text;html=1;align=center;verticalAlign=middle;whiteSpace=wrap;rounded=0;" parent="WIyWlLk6GJQsqaUBKTNV-1" vertex="1">
          <mxGeometry x="180" y="1296" width="60" height="40" as="geometry" />
        </mxCell>
        <mxCell id="lu5UdBAbkzEqNOQLVhs5-98" style="edgeStyle=orthogonalEdgeStyle;rounded=0;orthogonalLoop=1;jettySize=auto;html=1;exitX=0.5;exitY=1;exitDx=0;exitDy=0;entryX=0.5;entryY=0;entryDx=0;entryDy=0;" parent="WIyWlLk6GJQsqaUBKTNV-1" target="lu5UdBAbkzEqNOQLVhs5-101" edge="1">
          <mxGeometry relative="1" as="geometry">
            <mxPoint x="-535" y="62" as="sourcePoint" />
          </mxGeometry>
        </mxCell>
        <mxCell id="lu5UdBAbkzEqNOQLVhs5-99" value="START" style="ellipse;whiteSpace=wrap;html=1;fillColor=#D4E1F5;" parent="WIyWlLk6GJQsqaUBKTNV-1" vertex="1">
          <mxGeometry x="-574" y="12" width="80" height="50" as="geometry" />
        </mxCell>
        <mxCell id="lu5UdBAbkzEqNOQLVhs5-100" value="" style="edgeStyle=orthogonalEdgeStyle;rounded=0;orthogonalLoop=1;jettySize=auto;html=1;" parent="WIyWlLk6GJQsqaUBKTNV-1" source="lu5UdBAbkzEqNOQLVhs5-101" target="lu5UdBAbkzEqNOQLVhs5-110" edge="1">
          <mxGeometry relative="1" as="geometry" />
        </mxCell>
        <mxCell id="lu5UdBAbkzEqNOQLVhs5-101" value="INITIALIZATION" style="swimlane;fontStyle=0;childLayout=stackLayout;horizontal=1;startSize=30;horizontalStack=0;resizeParent=1;resizeParentMax=0;resizeLast=0;collapsible=1;marginBottom=0;whiteSpace=wrap;html=1;fillColor=#CCCCCC;" parent="WIyWlLk6GJQsqaUBKTNV-1" vertex="1">
          <mxGeometry x="-605" y="92" width="140" height="150" as="geometry">
            <mxRectangle x="470" y="210" width="60" height="30" as="alternateBounds" />
          </mxGeometry>
        </mxCell>
        <mxCell id="lu5UdBAbkzEqNOQLVhs5-102" value="Flags for desiderd plots" style="text;strokeColor=none;fillColor=none;align=left;verticalAlign=middle;spacingLeft=4;spacingRight=4;overflow=hidden;points=[[0,0.5],[1,0.5]];portConstraint=eastwest;rotatable=0;whiteSpace=wrap;html=1;" parent="lu5UdBAbkzEqNOQLVhs5-101" vertex="1">
          <mxGeometry y="30" width="140" height="30" as="geometry" />
        </mxCell>
        <mxCell id="lu5UdBAbkzEqNOQLVhs5-103" value="Rotor parameters" style="text;strokeColor=none;fillColor=none;align=left;verticalAlign=middle;spacingLeft=4;spacingRight=4;overflow=hidden;points=[[0,0.5],[1,0.5]];portConstraint=eastwest;rotatable=0;whiteSpace=wrap;html=1;" parent="lu5UdBAbkzEqNOQLVhs5-101" vertex="1">
          <mxGeometry y="60" width="140" height="30" as="geometry" />
        </mxCell>
        <mxCell id="lu5UdBAbkzEqNOQLVhs5-104" value="Operational conditions" style="text;strokeColor=none;fillColor=none;align=left;verticalAlign=middle;spacingLeft=4;spacingRight=4;overflow=hidden;points=[[0,0.5],[1,0.5]];portConstraint=eastwest;rotatable=0;whiteSpace=wrap;html=1;" parent="lu5UdBAbkzEqNOQLVhs5-101" vertex="1">
          <mxGeometry y="90" width="140" height="30" as="geometry" />
        </mxCell>
        <mxCell id="lu5UdBAbkzEqNOQLVhs5-105" value="Import airfoil data" style="text;strokeColor=none;fillColor=none;align=left;verticalAlign=middle;spacingLeft=4;spacingRight=4;overflow=hidden;points=[[0,0.5],[1,0.5]];portConstraint=eastwest;rotatable=0;whiteSpace=wrap;html=1;" parent="lu5UdBAbkzEqNOQLVhs5-101" vertex="1">
          <mxGeometry y="120" width="140" height="30" as="geometry" />
        </mxCell>
        <mxCell id="lu5UdBAbkzEqNOQLVhs5-106" value="" style="edgeStyle=orthogonalEdgeStyle;rounded=0;orthogonalLoop=1;jettySize=auto;html=1;" parent="WIyWlLk6GJQsqaUBKTNV-1" source="lu5UdBAbkzEqNOQLVhs5-110" target="lu5UdBAbkzEqNOQLVhs5-112" edge="1">
          <mxGeometry relative="1" as="geometry" />
        </mxCell>
        <mxCell id="lu5UdBAbkzEqNOQLVhs5-107" value="YES" style="edgeLabel;html=1;align=center;verticalAlign=middle;resizable=0;points=[];" parent="lu5UdBAbkzEqNOQLVhs5-106" vertex="1" connectable="0">
          <mxGeometry x="-0.3818" y="-1" relative="1" as="geometry">
            <mxPoint as="offset" />
          </mxGeometry>
        </mxCell>
        <mxCell id="lu5UdBAbkzEqNOQLVhs5-108" value="" style="edgeStyle=orthogonalEdgeStyle;rounded=0;orthogonalLoop=1;jettySize=auto;html=1;" parent="WIyWlLk6GJQsqaUBKTNV-1" source="lu5UdBAbkzEqNOQLVhs5-110" target="lu5UdBAbkzEqNOQLVhs5-122" edge="1">
          <mxGeometry relative="1" as="geometry" />
        </mxCell>
        <mxCell id="lu5UdBAbkzEqNOQLVhs5-109" value="NO" style="edgeLabel;html=1;align=center;verticalAlign=middle;resizable=0;points=[];" parent="lu5UdBAbkzEqNOQLVhs5-108" vertex="1" connectable="0">
          <mxGeometry x="-0.0871" relative="1" as="geometry">
            <mxPoint y="-29" as="offset" />
          </mxGeometry>
        </mxCell>
        <mxCell id="lu5UdBAbkzEqNOQLVhs5-110" value="Optimization?" style="rhombus;whiteSpace=wrap;html=1;fillColor=#E1D5E7;" parent="WIyWlLk6GJQsqaUBKTNV-1" vertex="1">
          <mxGeometry x="-580" y="272" width="90" height="90" as="geometry" />
        </mxCell>
        <mxCell id="lu5UdBAbkzEqNOQLVhs5-111" value="" style="edgeStyle=orthogonalEdgeStyle;rounded=0;orthogonalLoop=1;jettySize=auto;html=1;" parent="WIyWlLk6GJQsqaUBKTNV-1" source="lu5UdBAbkzEqNOQLVhs5-112" target="lu5UdBAbkzEqNOQLVhs5-114" edge="1">
          <mxGeometry relative="1" as="geometry" />
        </mxCell>
        <mxCell id="lu5UdBAbkzEqNOQLVhs5-112" value="BLADE OPTIMIZATION" style="whiteSpace=wrap;html=1;fillColor=#CCFFCC;" parent="WIyWlLk6GJQsqaUBKTNV-1" vertex="1">
          <mxGeometry x="-435" y="287" width="120" height="60" as="geometry" />
        </mxCell>
        <mxCell id="lu5UdBAbkzEqNOQLVhs5-150" style="edgeStyle=orthogonalEdgeStyle;rounded=0;orthogonalLoop=1;jettySize=auto;html=1;exitX=0.5;exitY=1;exitDx=0;exitDy=0;entryX=1;entryY=0.5;entryDx=0;entryDy=0;" parent="WIyWlLk6GJQsqaUBKTNV-1" source="lu5UdBAbkzEqNOQLVhs5-114" target="lu5UdBAbkzEqNOQLVhs5-147" edge="1">
          <mxGeometry relative="1" as="geometry" />
        </mxCell>
        <mxCell id="lu5UdBAbkzEqNOQLVhs5-114" value="BEM CYCLE" style="whiteSpace=wrap;html=1;fillColor=#CCFFFF;" parent="WIyWlLk6GJQsqaUBKTNV-1" vertex="1">
          <mxGeometry x="-285" y="287" width="120" height="60" as="geometry" />
        </mxCell>
        <mxCell id="lu5UdBAbkzEqNOQLVhs5-118" value="" style="edgeStyle=orthogonalEdgeStyle;rounded=0;orthogonalLoop=1;jettySize=auto;html=1;" parent="WIyWlLk6GJQsqaUBKTNV-1" source="lu5UdBAbkzEqNOQLVhs5-122" target="lu5UdBAbkzEqNOQLVhs5-124" edge="1">
          <mxGeometry relative="1" as="geometry" />
        </mxCell>
        <mxCell id="lu5UdBAbkzEqNOQLVhs5-119" value="NO" style="edgeLabel;html=1;align=center;verticalAlign=middle;resizable=0;points=[];" parent="lu5UdBAbkzEqNOQLVhs5-118" vertex="1" connectable="0">
          <mxGeometry x="-0.1829" y="-3" relative="1" as="geometry">
            <mxPoint y="-3" as="offset" />
          </mxGeometry>
        </mxCell>
        <mxCell id="lu5UdBAbkzEqNOQLVhs5-120" value="" style="edgeStyle=orthogonalEdgeStyle;rounded=0;orthogonalLoop=1;jettySize=auto;html=1;" parent="WIyWlLk6GJQsqaUBKTNV-1" source="lu5UdBAbkzEqNOQLVhs5-122" target="lu5UdBAbkzEqNOQLVhs5-127" edge="1">
          <mxGeometry relative="1" as="geometry" />
        </mxCell>
        <mxCell id="lu5UdBAbkzEqNOQLVhs5-121" value="YES" style="edgeLabel;html=1;align=center;verticalAlign=middle;resizable=0;points=[];" parent="lu5UdBAbkzEqNOQLVhs5-120" vertex="1" connectable="0">
          <mxGeometry x="0.056" y="-2" relative="1" as="geometry">
            <mxPoint y="2" as="offset" />
          </mxGeometry>
        </mxCell>
        <mxCell id="lu5UdBAbkzEqNOQLVhs5-122" value="Yaw angle = 0?" style="rhombus;whiteSpace=wrap;html=1;fillColor=#E1D5E7;" parent="WIyWlLk6GJQsqaUBKTNV-1" vertex="1">
          <mxGeometry x="-585" y="470" width="100" height="85" as="geometry" />
        </mxCell>
        <mxCell id="lu5UdBAbkzEqNOQLVhs5-123" value="" style="edgeStyle=orthogonalEdgeStyle;rounded=0;orthogonalLoop=1;jettySize=auto;html=1;" parent="WIyWlLk6GJQsqaUBKTNV-1" source="lu5UdBAbkzEqNOQLVhs5-124" target="lu5UdBAbkzEqNOQLVhs5-125" edge="1">
          <mxGeometry relative="1" as="geometry" />
        </mxCell>
        <mxCell id="lu5UdBAbkzEqNOQLVhs5-124" value="Take only case with&lt;br&gt;TSR = 8.0" style="whiteSpace=wrap;html=1;fillColor=#FFE6CC;" parent="WIyWlLk6GJQsqaUBKTNV-1" vertex="1">
          <mxGeometry x="-425" y="482.5" width="120" height="60" as="geometry" />
        </mxCell>
        <mxCell id="lu5UdBAbkzEqNOQLVhs5-125" value="BEM CYCLE" style="whiteSpace=wrap;html=1;fillColor=#CCFFFF;" parent="WIyWlLk6GJQsqaUBKTNV-1" vertex="1">
          <mxGeometry x="-425" y="570" width="120" height="60" as="geometry" />
        </mxCell>
        <mxCell id="lu5UdBAbkzEqNOQLVhs5-126" value="" style="edgeStyle=orthogonalEdgeStyle;rounded=0;orthogonalLoop=1;jettySize=auto;html=1;" parent="WIyWlLk6GJQsqaUBKTNV-1" source="lu5UdBAbkzEqNOQLVhs5-127" target="lu5UdBAbkzEqNOQLVhs5-129" edge="1">
          <mxGeometry relative="1" as="geometry" />
        </mxCell>
        <mxCell id="lu5UdBAbkzEqNOQLVhs5-127" value="BEM CYCLE" style="whiteSpace=wrap;html=1;fillColor=#CCFFFF;" parent="WIyWlLk6GJQsqaUBKTNV-1" vertex="1">
          <mxGeometry x="-765" y="482.5" width="120" height="60" as="geometry" />
        </mxCell>
        <mxCell id="lu5UdBAbkzEqNOQLVhs5-128" value="" style="edgeStyle=orthogonalEdgeStyle;rounded=0;orthogonalLoop=1;jettySize=auto;html=1;" parent="WIyWlLk6GJQsqaUBKTNV-1" source="lu5UdBAbkzEqNOQLVhs5-129" target="lu5UdBAbkzEqNOQLVhs5-132" edge="1">
          <mxGeometry relative="1" as="geometry" />
        </mxCell>
        <mxCell id="lu5UdBAbkzEqNOQLVhs5-129" value="Compute total CT, CQ, CP" style="whiteSpace=wrap;html=1;fillColor=#FFE6CC;" parent="WIyWlLk6GJQsqaUBKTNV-1" vertex="1">
          <mxGeometry x="-765" y="570" width="120" height="60" as="geometry" />
        </mxCell>
        <mxCell id="lu5UdBAbkzEqNOQLVhs5-130" value="" style="edgeStyle=orthogonalEdgeStyle;rounded=0;orthogonalLoop=1;jettySize=auto;html=1;" parent="WIyWlLk6GJQsqaUBKTNV-1" source="lu5UdBAbkzEqNOQLVhs5-132" target="lu5UdBAbkzEqNOQLVhs5-133" edge="1">
          <mxGeometry relative="1" as="geometry" />
        </mxCell>
        <mxCell id="lu5UdBAbkzEqNOQLVhs5-131" value="YES" style="edgeLabel;html=1;align=center;verticalAlign=middle;resizable=0;points=[];" parent="lu5UdBAbkzEqNOQLVhs5-130" vertex="1" connectable="0">
          <mxGeometry x="-0.0114" y="-3" relative="1" as="geometry">
            <mxPoint x="-4" y="-3" as="offset" />
          </mxGeometry>
        </mxCell>
        <mxCell id="lu5UdBAbkzEqNOQLVhs5-132" value="TSR = 8?" style="rhombus;whiteSpace=wrap;html=1;fillColor=#E1D5E7;" parent="WIyWlLk6GJQsqaUBKTNV-1" vertex="1">
          <mxGeometry x="-745" y="660" width="80" height="80" as="geometry" />
        </mxCell>
        <mxCell id="lu5UdBAbkzEqNOQLVhs5-133" value="Compute&lt;br&gt;stagnation pressure" style="whiteSpace=wrap;html=1;fillColor=#FFE6CC;" parent="WIyWlLk6GJQsqaUBKTNV-1" vertex="1">
          <mxGeometry x="-595" y="670" width="120" height="60" as="geometry" />
        </mxCell>
        <mxCell id="lu5UdBAbkzEqNOQLVhs5-134" value="" style="edgeStyle=orthogonalEdgeStyle;rounded=0;orthogonalLoop=1;jettySize=auto;html=1;" parent="WIyWlLk6GJQsqaUBKTNV-1" source="lu5UdBAbkzEqNOQLVhs5-136" target="lu5UdBAbkzEqNOQLVhs5-143" edge="1">
          <mxGeometry relative="1" as="geometry" />
        </mxCell>
        <mxCell id="lu5UdBAbkzEqNOQLVhs5-135" value="YES" style="edgeLabel;html=1;align=center;verticalAlign=middle;resizable=0;points=[];" parent="lu5UdBAbkzEqNOQLVhs5-134" vertex="1" connectable="0">
          <mxGeometry x="-0.1848" y="1" relative="1" as="geometry">
            <mxPoint x="-1" y="-5" as="offset" />
          </mxGeometry>
        </mxCell>
        <mxCell id="lu5UdBAbkzEqNOQLVhs5-136" value="All yaw angles&lt;div&gt;and TSR&lt;/div&gt;&lt;div&gt;evaluated?&lt;/div&gt;" style="rhombus;whiteSpace=wrap;html=1;fillColor=#E1D5E7;" parent="WIyWlLk6GJQsqaUBKTNV-1" vertex="1">
          <mxGeometry x="-595" y="790" width="120" height="110" as="geometry" />
        </mxCell>
        <mxCell id="lu5UdBAbkzEqNOQLVhs5-137" value="" style="endArrow=classic;html=1;rounded=0;exitX=0.5;exitY=1;exitDx=0;exitDy=0;entryX=0.5;entryY=0;entryDx=0;entryDy=0;" parent="WIyWlLk6GJQsqaUBKTNV-1" source="lu5UdBAbkzEqNOQLVhs5-133" target="lu5UdBAbkzEqNOQLVhs5-136" edge="1">
          <mxGeometry width="50" height="50" relative="1" as="geometry">
            <mxPoint x="-365" y="750" as="sourcePoint" />
            <mxPoint x="-315" y="700" as="targetPoint" />
          </mxGeometry>
        </mxCell>
        <mxCell id="lu5UdBAbkzEqNOQLVhs5-138" value="" style="endArrow=none;html=1;rounded=0;exitX=0.5;exitY=1;exitDx=0;exitDy=0;" parent="WIyWlLk6GJQsqaUBKTNV-1" source="lu5UdBAbkzEqNOQLVhs5-132" edge="1">
          <mxGeometry width="50" height="50" relative="1" as="geometry">
            <mxPoint x="-365" y="750" as="sourcePoint" />
            <mxPoint x="-535" y="760" as="targetPoint" />
            <Array as="points">
              <mxPoint x="-705" y="760" />
            </Array>
          </mxGeometry>
        </mxCell>
        <mxCell id="lu5UdBAbkzEqNOQLVhs5-139" value="NO" style="edgeLabel;html=1;align=center;verticalAlign=middle;resizable=0;points=[];" parent="lu5UdBAbkzEqNOQLVhs5-138" vertex="1" connectable="0">
          <mxGeometry x="-0.3937" relative="1" as="geometry">
            <mxPoint as="offset" />
          </mxGeometry>
        </mxCell>
        <mxCell id="lu5UdBAbkzEqNOQLVhs5-140" value="" style="endArrow=none;html=1;rounded=0;entryX=0.5;entryY=1;entryDx=0;entryDy=0;" parent="WIyWlLk6GJQsqaUBKTNV-1" target="lu5UdBAbkzEqNOQLVhs5-125" edge="1">
          <mxGeometry width="50" height="50" relative="1" as="geometry">
            <mxPoint x="-535" y="760" as="sourcePoint" />
            <mxPoint x="-315" y="700" as="targetPoint" />
            <Array as="points">
              <mxPoint x="-365" y="760" />
            </Array>
          </mxGeometry>
        </mxCell>
        <mxCell id="lu5UdBAbkzEqNOQLVhs5-141" value="For each yaw angle&lt;br&gt;For each TSR" style="text;html=1;align=right;verticalAlign=middle;whiteSpace=wrap;rounded=0;" parent="WIyWlLk6GJQsqaUBKTNV-1" vertex="1">
          <mxGeometry x="-675" y="430" width="130" height="30" as="geometry" />
        </mxCell>
        <mxCell id="lu5UdBAbkzEqNOQLVhs5-142" value="" style="edgeStyle=orthogonalEdgeStyle;rounded=0;orthogonalLoop=1;jettySize=auto;html=1;" parent="WIyWlLk6GJQsqaUBKTNV-1" source="lu5UdBAbkzEqNOQLVhs5-143" target="lu5UdBAbkzEqNOQLVhs5-147" edge="1">
          <mxGeometry relative="1" as="geometry" />
        </mxCell>
        <mxCell id="lu5UdBAbkzEqNOQLVhs5-143" value="PLOTS" style="whiteSpace=wrap;html=1;fillColor=#FFE6CC;" parent="WIyWlLk6GJQsqaUBKTNV-1" vertex="1">
          <mxGeometry x="-595" y="942" width="120" height="60" as="geometry" />
        </mxCell>
        <mxCell id="lu5UdBAbkzEqNOQLVhs5-144" value="" style="endArrow=none;html=1;rounded=0;exitX=0;exitY=0.5;exitDx=0;exitDy=0;" parent="WIyWlLk6GJQsqaUBKTNV-1" source="lu5UdBAbkzEqNOQLVhs5-136" edge="1">
          <mxGeometry width="50" height="50" relative="1" as="geometry">
            <mxPoint x="-255" y="802" as="sourcePoint" />
            <mxPoint x="-795" y="662" as="targetPoint" />
            <Array as="points">
              <mxPoint x="-795" y="845" />
            </Array>
          </mxGeometry>
        </mxCell>
        <mxCell id="lu5UdBAbkzEqNOQLVhs5-145" value="NO" style="edgeLabel;html=1;align=center;verticalAlign=middle;resizable=0;points=[];" parent="lu5UdBAbkzEqNOQLVhs5-144" vertex="1" connectable="0">
          <mxGeometry x="-0.8104" y="1" relative="1" as="geometry">
            <mxPoint x="-4" y="-1" as="offset" />
          </mxGeometry>
        </mxCell>
        <mxCell id="lu5UdBAbkzEqNOQLVhs5-146" value="" style="endArrow=none;html=1;rounded=0;" parent="WIyWlLk6GJQsqaUBKTNV-1" edge="1">
          <mxGeometry width="50" height="50" relative="1" as="geometry">
            <mxPoint x="-795" y="662" as="sourcePoint" />
            <mxPoint x="-535" y="412" as="targetPoint" />
            <Array as="points">
              <mxPoint x="-795" y="412" />
            </Array>
          </mxGeometry>
        </mxCell>
        <mxCell id="lu5UdBAbkzEqNOQLVhs5-147" value="END" style="ellipse;whiteSpace=wrap;html=1;fillColor=#D4E1F5;" parent="WIyWlLk6GJQsqaUBKTNV-1" vertex="1">
          <mxGeometry x="-570" y="1022" width="70" height="50" as="geometry" />
        </mxCell>
        <mxCell id="lu5UdBAbkzEqNOQLVhs5-149" value="&lt;font style=&quot;font-size: 18px;&quot;&gt;BEM CYCLE&lt;/font&gt;" style="text;html=1;align=center;verticalAlign=middle;whiteSpace=wrap;rounded=0;" parent="WIyWlLk6GJQsqaUBKTNV-1" vertex="1">
          <mxGeometry x="-85" y="52" width="120" height="40" as="geometry" />
        </mxCell>
      </root>
    </mxGraphModel>
  </diagram>
</mxfile>
